<svg id="Layer_1" data-name="Layer 1" xmlns="http://www.w3.org/2000/svg" viewBox="0 0 181.41732 141.73228">
  <defs>
    <style>
      .cls-1 {
        fill: #aac811;
      }
    </style>
  </defs>
  <g>
    <path class="cls-1" d="M-3.76357,80.46983c.07919-.03.15839-.06.1884.02A.2656.2656,0,0,1-3.76357,80.46983ZM6.732,101.99609c.10837.04835.29677.06919.51519.16839a3.00107,3.00107,0,0,1,.45433.73194c.24759.1784.80113-.02918.85115.58438a1.16772,1.16772,0,0,1-.486.63273,1.71291,1.71291,0,0,1-1.04788-.87115c-.366-.49518-.52353-1.15793-1.09791-1.48555-.13838-.12755-.0892-.23759-.18757-.7411C6.45519,101.01573,6.56439,101.06491,6.732,101.99609Zm5.527,7.04676-.10837-.04835c-.03-.08.04918-.11005.12838-.13922C12.33819,109.01367,12.259,109.04285,12.259,109.04285Zm6.55158,15.32981c.17756.47517.17756.47517-.2676.73193A.72422.72422,0,0,1,18.81057,124.37266Zm4.38411,16.77367a.18294.18294,0,0,1-.1.21758.29889.29889,0,0,1-.13838-.12922.29667.29667,0,0,0,.02-.18756C23.08464,141.09631,23.273,141.11632,23.19468,141.14633Zm1.45887-8.39893-.10921-.05c-.02917-.0792.04919-.10838.09921-.21758A.31129.31129,0,0,1,24.65355,132.7474Zm.87949-16.2168a.4632.4632,0,0,1,.30678-.386c.12838-.13839.45517.01083.46517.2776a.99541.99541,0,0,1-.52519,1.00787A.75386.75386,0,0,1,25.533,116.5306Zm.25926,12.99145c.03.07836-.02.1884-.06919.29678l-.21758-.1a.45155.45155,0,0,1,.06919-.29594C25.68393,129.47287,25.8715,129.49287,25.7923,129.52205Zm.1834-43.3968a.1841.1841,0,0,1-.0992.21924l-.21758-.1c.05-.10838.09837-.21758.14839-.326A.6626.6626,0,0,1,25.9757,86.12525Zm-.24509,48.29444c.05-.10921.23759-.0892.23759-.0892.24676.1784.22759.366.01918.53436C25.6114,134.82484,25.63141,134.63727,25.73061,134.41969Zm.135-46.177a.29467.29467,0,0,0,.18757.02084c-.04918.10921-.0992.21675-.0992.21675-.0792.03-.18757-.01918-.26676.01084C25.73645,88.38191,25.78564,88.2727,25.86566,88.24269Zm1.75648,43.03167c-.08836-.23759.11921-.406.2476-.54436a.4802.4802,0,0,1,.67274.11.95706.95706,0,0,1,0,.72193c-.0992.21758-.1984.43432-.57438.39514C27.75052,131.85874,27.66133,131.62032,27.62214,131.27436Zm.812-54.01238c.05919.15839.05919.15839-.02.18841C28.38493,77.37119,28.35491,77.292,28.43411,77.262Zm.58105,4.20488a.30945.30945,0,0,1-.43516-.1984.25208.25208,0,0,1,.11921-.40432c.12838-.13922.426-.06919.54436.24759C29.19356,81.22011,29.17355,81.40768,29.01516,81.46686Zm2.11161,46.14782c-.0792.03-.20758.16923-.396.14839a.64777.64777,0,0,1-.30678-.336c.05-.1092.07-.29677.11921-.406.04918-.10837.20841-.16756.44516-.25676C31.29516,127.10116,31.30517,127.36792,31.12677,127.61468Zm-.18924,20.4717-.10921-.04918C30.90752,148.00719,30.90752,148.00719,30.93753,148.08638Zm.10754-68.19176a.37736.37736,0,0,1,.11838-.40515c.1884.02.29761.07.32678.14922.02918.07836-.0992.21758-.11921.406C31.23264,79.91546,31.07425,79.97465,31.04507,79.89462Zm.927,39.37032c-.10837-.04918-.21758-.0992-.21758-.0992.05-.10837.0992-.21675.0992-.21675a.45374.45374,0,0,1,.29761.06836C32.10129,119.12739,32.05127,119.23493,31.97208,119.26494Zm.5477-23.13268a.31151.31151,0,0,1,.00917.2676.64486.64486,0,0,1-.19674-.28677A.26023.26023,0,0,0,32.51978,96.13226Zm1.30215,7.096a.42975.42975,0,1,1-.792.29594.38705.38705,0,0,1,.16839-.51436C33.51515,102.89142,33.73273,102.99062,33.82193,103.22821Zm-.76529,5.43116.09921-.21758c.1092.04919.2676-.01.29677.06919.03.0792-.02.18841-.03918.376A.90021.90021,0,0,1,33.05664,108.65937Zm.471-45.76142c.03.08-.04918.11-.02.1884-.10837-.04919-.10837-.04919-.13755-.12922a.64325.64325,0,0,1-.01-.26676C33.49847,62.81958,33.49847,62.81958,33.52765,62.898ZM33.49847,97.301c-.03-.08.05-.11.02-.1884a.29669.29669,0,0,1,.18757.02c.03.08-.04918.10921-.01917.18757C33.57767,97.271,33.57767,97.271,33.49847,97.301Zm.2501-5.60039c-.03919-.34679.1984-.43516.53519-.74111C34.22374,91.52223,34.22374,91.52223,33.74857,91.70063Zm.491,42.78408c-.27677-.25843-.27677-.25843-.04918-.61356C34.46716,134.12791,34.33878,134.2663,34.23958,134.48471Zm.63107-31.10728a.30906.30906,0,0,0-.2676.00833.51039.51039,0,0,1-.15756-.66191c.12838-.13921.28677-.19924.56354.05919C34.989,102.97145,34.89065,103.189,34.87065,103.37743ZM34.478,97.747a.853.853,0,0,1,.20758-.16923c.06.1584.0892.23759.11921.31762-.05.10837-.05.10837-.12922.13838C34.56637,97.98461,34.50718,97.82538,34.478,97.747Zm.84448-6.90587c-.15756.05919-.40515-.11921-.49435-.35763.02084-.18674.04-.37514.19841-.43433.23758-.0892.45516.01.57354.326A.34133.34133,0,0,1,35.32248,90.84115Zm-.48018,27.89193c.04919-.11.0992-.21758.0992-.21758a.18074.18074,0,0,1,.21758.0992c.02918.07836-.05.10754-.0992.21675C34.95067,118.78143,34.87231,118.81144,34.8423,118.73308Zm.56771-6.4407a.56564.56564,0,0,1,.2676-.73277.48651.48651,0,0,1,.65191.29677.56478.56478,0,0,1-.26677.73194A.48675.48675,0,0,1,35.41,112.29238Zm.40765-4.93765c.08-.03.23759-.0892.31678-.11838a.36423.36423,0,0,1,.436.19757.35536.35536,0,0,1-.06.56438c-.12922.13838-.44517.25676-.65274.42515A2.40278,2.40278,0,0,1,35.81766,107.35473Zm.19757-17.31554c-.05919-.15756-.14755-.39515-.20674-.55354-.03918-.346.21758-.62356.406-.60272a.65739.65739,0,0,1,.74194.53436c-.02.18757-.11921.406-.1884.70276A2.51,2.51,0,0,0,36.01523,90.03919Zm.02084,16.69281s-.10837-.05-.21758-.1a.29511.29511,0,0,0,.12922-.13839c.04918-.10837.18757.02.26676-.01C36.16445,106.59278,36.11527,106.70282,36.03607,106.732Zm-.14588-21.61046a.6907.6907,0,0,1,.366-.94951.80023.80023,0,0,1,1.08873.49685c.11838.316-.06.5627-.45517.71109C36.41455,85.55754,36.03858,85.51836,35.89019,85.12154Zm.2676,16.14845c.03.07919-.04919.10837-.12838.13838-.06-.15839-.0892-.23759-.03919-.34679C36.0986,101.11159,36.2078,101.16078,36.15779,101.27Zm.36513,19.54135c.05919.1584-.0892.48435-.2776.46434-.0792.03-.21758-.09837-.24759-.1784a1.48827,1.48827,0,0,1,.16923-.51435A1.16447,1.16447,0,0,0,36.52292,120.81134Zm-.05419-26.42722c-.436-.19924-.44516-.46517-.40515-.842.02918-.64357.47518-.8995,1.02955-1.10707.43516.1984.49435.3568.45433.73193-.06919.29678-.24759.54437-.31678.84115C36.99309,94.09651,36.70632,94.29492,36.46873,94.38412Zm-.38681-15.7433c-.03-.07836-.03-.07836.04919-.10754A.08129.08129,0,0,1,36.08192,78.64082Zm1.01788,38.164c-.23842.08837-.59439-.13922-.74277-.5352a.55142.55142,0,1,1,1.05955-.30594A.72733.72733,0,0,1,37.0998,116.80487Zm-.346-2.12745a.22474.22474,0,0,1-.32679-.14922c-.02918-.07836.0992-.21758.0992-.21758.10921.05.21842.09837.32679.14922A.18255.18255,0,0,0,36.75384,114.67742Zm-.025-8.74739a.54034.54034,0,0,1,.47517-.17756Zm.9862,5.76879a.47342.47342,0,0,1-.62273-.21758.68257.68257,0,0,1,.05-.83114c.416-.33595.68276-.346,1.20712.09C38.3686,111.27367,38.141,111.62963,37.715,111.69882Zm-.21092,6.66913a.44688.44688,0,0,1,.0692-.29678c.07919-.03.26676-.01.29677.06919-.05.10921-.09837.21758-.14839.32679C37.61332,118.41713,37.50411,118.368,37.50411,118.368Zm.787-9.95367a.37183.37183,0,0,1-.49435-.356.40125.40125,0,1,1,.802-.02918A.32322.32322,0,0,1,38.29107,108.41428ZM38.437,95.542c-.0792.02918-.13839-.12921-.1684-.20757a.18248.18248,0,0,1,.09921-.21758c.07919-.02918.18756.02.406.11837C38.56534,95.40449,38.51532,95.512,38.437,95.542Zm.456-19.75852a.23923.23923,0,0,1-.14756-.396.49682.49682,0,0,1,.346-.03834c.15839-.06.21758.09753.49434.35513A3.635,3.635,0,0,1,38.893,75.78352Zm-.15089,21.54a1.16131,1.16131,0,0,1,.33762-1.02788.43562.43562,0,0,1,.64274.02918,1.40034,1.40034,0,0,1,.356.95035,1.14067,1.14067,0,0,1-.56438.66275C39.05885,97.92792,38.89046,97.71951,38.74207,97.32353Zm.847,7.08428a.36448.36448,0,0,1-.43516-.19758c-.08837-.23842.01084-.45516.2776-.46517.15839-.05835.29678.07.406.11921A.45344.45344,0,0,1,39.58905,104.40781Zm-.28177,7.68866a.31065.31065,0,0,0-.16673-.20841c.07836-.03.15839-.05919.15839-.05919.07836-.03.10838.04919.13839.12838C39.3573,111.98726,39.38731,112.06646,39.30728,112.09647Zm.02334,12.35788c-.02918-.07919-.13838-.12921-.16756-.20841a.29522.29522,0,0,1,.12838-.13838,1.04156,1.04156,0,0,0,.29678.07C39.45983,124.316,39.38064,124.34515,39.33062,124.45435Zm.59439,16.29517c-.04919.11-.04919.11-.20758.16923a.29544.29544,0,0,1,.02-.18924C39.81663,140.70033,39.84581,140.77953,39.925,140.74952Zm.53186-48.49035c-.0792.03-.23759.0892-.31679.11838-.07836.03-.21758-.1-.21758-.1-.08836-.23675-.17673-.47434-.04918-.61273a8.54491,8.54491,0,0,1,.91117-.70192C40.64527,91.55641,40.57608,91.85235,40.45687,92.25917Zm.02834,2.96776c-.07919.02918-.1092-.04919-.18757-.01918.04919-.1092.04919-.1092.12838-.13921Zm.02,17.41391c.0892-.48435-.00917-.98953.3768-1.40469a1.98653,1.98653,0,0,0,.54437.24759.92735.92735,0,0,1,.96953.17924.65066.65066,0,0,1-.2576.27593,1.773,1.773,0,0,0-.90116.96953C40.91037,112.76005,40.7228,112.74,40.50522,112.64084Zm.436-2.691c.03.08-.09837.21758-.09837.21758a.18262.18262,0,0,1-.21841-.09921l.1-.21674C40.83367,109.90066,40.94121,109.94985,40.94121,109.94985Zm.16506,6.7083c.03.0792-.12838.13838-.12838.13838-.34679.03918-.35679-.22675-.25676-.44516C41.14629,116.28218,41.20548,116.44057,41.10627,116.65815Zm.13172-5.91634c-.10837-.05-.10837-.05-.13755-.12839C41.20881,110.66261,41.20881,110.66261,41.238,110.74181Zm.30594-32.70037a.29854.29854,0,0,1-.1884-.02.45281.45281,0,0,1,.06919-.29678c.08-.03.18841.02084.29678.0692C41.67232,77.90222,41.62313,78.01143,41.54393,78.04144Zm-.00833,32.04679c-.10921-.04835-.10921-.04835-.13839-.12838C41.47641,109.92984,41.50642,110.00987,41.5356,110.08823Zm.53936,8.19385a.29767.29767,0,0,1-.1884-.02084c-.02918-.07836-.05835-.15756.01-.45517Q41.98661,118.04492,42.075,118.28208Zm.87366-5.38281a.16909.16909,0,1,1-.31678.11837c-.02918-.07836.05-.10754.04-.376C42.81023,112.77005,42.91861,112.8209,42.94862,112.89927Zm-.2701-48.46242a.16964.16964,0,0,1,.31762-.11921c.02917.08-.04919.11-.14923.32762C42.8169,64.56523,42.70853,64.51688,42.67852,64.43685Zm.5452,53.05411a.50917.50917,0,0,1,.63273-.23759.63687.63687,0,0,1,.15756.66274c-.09837.21758-.30678.38681-.52353.28761a1.2,1.2,0,0,1-.35679-.22842A1.81846,1.81846,0,0,1,43.22372,117.491Zm.34346-14.75293a.26055.26055,0,0,1-.01917.18757c-.02918-.07837-.10838-.04836-.13839-.12839Zm-.02834-1.52306a.08313.08313,0,0,1,.05-.10921c.07837-.03.10838.05.13839.12838A.29569.29569,0,0,1,43.53884,101.215Zm.76028-14.36613a.39945.39945,0,0,1,.24759-.54436.36508.36508,0,0,1,.436.1984.38728.38728,0,0,1-.16923.51436C44.57588,87.10644,44.38748,87.0856,44.29912,86.84884Zm.72193,1.4447c-.08.02918-.32679-.14755-.19841-.2876a.31243.31243,0,0,1,.20841-.16673,1.16455,1.16455,0,0,1,.356.22675A3.38314,3.38314,0,0,0,45.02105,88.29354ZM45.13442,114.88c.09837-.21758.22759-.35679.44517-.25759.1884.02084.27677.25759.25676.44516-.06836.29678-.19757.43516-.68275.346C45.1736,115.226,45.0844,114.98837,45.13442,114.88ZM46.735,100.83066c-.20757.16839-.42515.06919-.59355-.13839a.564.564,0,0,1,.1684-.51519.45332.45332,0,0,1,.54436.24759C46.805,100.53388,46.785,100.72228,46.735,100.83066Zm-.42349,14.7821a.3.3,0,0,1-.13838-.12921.29272.29272,0,0,1,.01917-.18757.45.45,0,0,1,.29761.06919C46.4399,115.47271,46.39072,115.58275,46.31152,115.61276Zm.92284-22.3699c-.03-.08-.13922-.13-.24759-.17839-.03-.08.0992-.21758.0992-.21758.0792-.03.18757.01917.32679.14755C47.36274,93.10281,47.28355,93.13282,47.23436,93.24286Zm.42433,54.18a.18121.18121,0,0,1-.09921.21758s-.10837-.04919-.21758-.09921c0,0,.05-.10837.09921-.21674C47.55031,147.37362,47.65869,147.42281,47.65869,147.42281Zm-.11005-32.36442-.13838-.12838a.182.182,0,0,1,.09837-.21758s.10921.05.21841.09921C47.677,114.92084,47.627,115.02838,47.54864,115.05839Zm.48518-18.957a.443.443,0,0,1-.29677-.0692c.05-.10837.0992-.21758.14839-.32678a1.05665,1.05665,0,0,0,.29677.07086C48.05383,95.91385,48.08384,95.99388,48.03382,96.10142Zm0,16.88038a.31058.31058,0,0,1,.19841-.436.341.341,0,0,1,.46517.2776c.05836.1584-.01.45517-.16839.51436A.465.465,0,0,1,48.03382,112.9818Zm.42349,21.86638a.29372.29372,0,0,1,.18841.02.18159.18159,0,0,1-.1.21758.29073.29073,0,0,0-.18757-.02C48.40729,134.95738,48.45731,134.84818,48.45731,134.84818Zm.135-28.57469a.21386.21386,0,0,1,.376.04c.16757.20758.03919.346-.19757.43433C48.55235,106.64863,48.384,106.44189,48.59236,106.27349Zm.46934-7.66782c.05919.15839-.06919.29678-.25759.27677-.07837.02918-.21758-.0992-.24676-.17756-.03-.08.09837-.21759.11838-.40682A.7811.7811,0,0,1,49.0617,98.60567Zm1.10291,8.975c.09837-.21758.30678-.386.52436-.28677a.30745.30745,0,0,1,.16839.20758c.00917.26759-.11921.406-.466.44516-.07836.03-.10838-.04919-.21675-.0992A.30966.30966,0,0,1,50.16461,107.58064Zm1.49388,17.49394c.29678.792.27677.97869-.49518,1.0879a3.73745,3.73745,0,0,0-.22675-.366c.04-.3768-.3468-.68358-.22759-1.08873A5.47968,5.47968,0,0,1,51.65849,125.07458ZM51.085,88.82124a.26588.26588,0,0,1-.13839-.12838.08323.08323,0,0,1,.05-.10921,1.11592,1.11592,0,0,1,.42516-.06836C51.135,88.712,51.085,88.82124,51.085,88.82124Zm.25176,28.88229c.19757.28594.19757.28594-.09.48435C51.04993,117.90027,51.04993,117.90027,51.33671,117.70353Zm.76945-14.09852c-.0792.02918-.0792.02918-.15756.05919-.03-.08.04835-.11.01917-.18924C51.997,103.55416,52.07614,103.525,52.10616,103.605Zm.17756,19.52052c.22675.3668.09837.50435-.15922.78112C51.97611,123.51151,51.99612,123.32227,52.28372,123.12553Zm.05169-23.48948c-.02918-.07836.05-.10754.1-.21758.02918.08.10838.05.13839.12838-.08.03-.05.11-.1.21925A.26515.26515,0,0,1,52.33541,99.63605Zm1.34382,21.43206a1.79851,1.79851,0,0,1-.1092.67274c-.12838.13839-.2576.27677-.44517.2576a.46342.46342,0,0,1-.49434-.3568.897.897,0,0,1,.44516-.97953A.66809.66809,0,0,1,53.67923,121.06811Zm-.60272-18.0083c-.03-.07919-.13922-.12838-.16839-.20674a.29076.29076,0,0,1,.12921-.13922c.07836-.03.10837.05.29594.06919C53.20406,102.92143,53.15571,103.03063,53.07651,103.05981Zm.0942-43.63314c-.05.10837-.18923-.02-.21841-.0992-.03-.0792.0992-.21758.0992-.21758a.44775.44775,0,0,1,.29678.06919C53.29826,59.28828,53.24908,59.39666,53.17071,59.42667ZM53.054,124.46185a.26264.26264,0,0,0,.18841.01918c.05919.15839.08836.23842.03834.34679-.07836.03-.07836.03-.15755.05919A.76151.76151,0,0,1,53.054,124.46185Zm.20175-24.53819c.03.07919.05918.15839-.02.1884a.08266.08266,0,0,1-.10838-.05S53.09735,99.98285,53.25575,99.92366Zm1.739,5.12605c.10837.05.26676-.00917.29677.06919a3.43438,3.43438,0,0,1-.03167,2.8102,1.21294,1.21294,0,0,1-1.04872.57355,1.77758,1.77758,0,0,1-.96953-.90033,1.27367,1.27367,0,0,1,.69359-1.5239,3.433,3.433,0,0,1,.87116-.32595C54.87551,105.45653,54.97471,105.23811,54.99472,105.04971Zm-.2551-4.05733a3.58225,3.58225,0,0,1-.1884.70276.44708.44708,0,0,1-.66358.15923c-.21674-.09921-.27676-.2576-.12838-.58438-.02917-.08.1-.21758.1784-.2476A1.61913,1.61913,0,0,1,54.73962,100.99238Zm-.88782-5.26277a.2976.2976,0,0,1-.13839-.13l.02-.18757c.0792-.03.18757.02084.29678.06919C53.981,95.59123,53.931,95.6996,53.8518,95.72961Zm.4535-32.3048a.4353.4353,0,0,1,.25759-.27677c.05-.11.23759-.0892.42516-.07C54.77047,63.70241,54.77047,63.70241,54.3053,63.42481Zm.17173,29.633a.262.262,0,0,1,.01917-.18841c.03.08.13922.12922.1684.20925C54.50621,93.13783,54.50621,93.13783,54.477,93.0578Zm.42515,17.53312a3.31175,3.31175,0,0,1-.336-.416c-.03-.07836.0992-.21758.14839-.326a3.292,3.292,0,0,1,.53436-.02C55.10059,110.15576,55.05141,110.265,54.90218,110.59092Zm.00834-14.44532s-.01917.1884-.0992.21841a.183.183,0,0,1-.21758-.0992.43979.43979,0,0,1,.07-.29761C54.77214,96.01639,54.88134,96.06557,54.91052,96.1456Zm.51186,21.3812a.26566.26566,0,0,1,.1884.02C55.45239,117.606,55.45239,117.606,55.42238,117.5268Zm.48434-33.66989a.38472.38472,0,0,1,.14839-.326c.31678-.11838.48518.08836.49435.356C56.29186,84.16452,56.10513,84.14452,55.90672,83.85691Zm.61606,13.21987-.10921-.05a.29071.29071,0,0,1,.02-.18757c.0792-.03.10921.04918.29678.06919C56.572,96.96757,56.602,97.04676,56.52278,97.07678Zm.13839,17.00792a.29568.29568,0,0,1,.1884.01918.2659.2659,0,0,1-.02.1884C56.69118,114.1639,56.69118,114.1639,56.66117,114.0847Zm.47767-73.475c-.03-.07919-.03-.07919-.13922-.12838a.29889.29889,0,0,0,.12922-.13838.29108.29108,0,0,1,.13755.12838C57.18719,40.50137,57.18719,40.50137,57.13884,40.60974Zm.5402,74.98885c-.336.30762-.336.30762-.65191-.29677Q57.3535,115.44937,57.679,115.59859Zm-.60105-20.896c.05-.10921.05-.10921.12921-.13839C57.15718,94.67256,57.15718,94.67256,57.078,94.70257Zm.67524,12.65466a.68454.68454,0,0,1-.51435.55353C57.24888,107.45643,57.24888,107.45643,57.75323,107.35723Zm.00917-15.89c-.07919.03-.26676.01-.29677-.06919-.16756-.20841-.03918-.3468.22842-.356C57.8316,91.1696,57.89078,91.32883,57.7624,91.46721Zm-.20507,12.71385s.1-.21758.12921-.13922a.18247.18247,0,0,1,.21758.0992c.03.0792-.02.18924-.14922.32679C57.69571,104.30944,57.58734,104.26025,57.55733,104.18106Zm.75778-10.75479c-.21758-.1-.29594-.07-.29594-.07-.1684-.20674-.3368-.41515-.04919-.61273.09837-.21758.23759-.0892.51436.1684C58.46433,93.10031,58.33511,93.23786,58.31511,93.42627Zm.07753,21.90556c-.12922.13838-.1784.24842-.39682.14839-.16756-.20758-.11837-.31679.09-.48435C58.35262,114.98587,58.46183,115.03589,58.39264,115.33183Zm-.06-16.31517c-.08.03-.1092-.05-.21841-.09921.08-.02917.05-.1092.1-.21758,0,0,.10837.04919.21674.09921A.18161.18161,0,0,0,58.33261,99.01666Zm1.18877-4.0565a.71593.71593,0,0,1-.33679,1.02955.76105.76105,0,0,1-.53353-1.42553A.6215.6215,0,0,1,59.52138,94.96016Zm-1.1821,25.5369c-.07836.03-.21674-.0992-.13755-.12838a.18122.18122,0,0,1,.09921-.21758c.02917.0792.13838.12838.24675.1784A.64016.64016,0,0,1,58.33928,120.49706Zm.71277-17.14714c-.04919.11-.12839.14005-.1784.24759-.10921-.04835-.21758-.0992-.24676-.17757a1.06208,1.06208,0,0,0,.06919-.29677C58.83447,103.25155,59.02287,103.27156,59.05205,103.34992ZM58.84614,99.907c-.25676-.44516-.05836-.88032.60439-1.03788a3.91576,3.91576,0,0,1,.69275-.08c.23675-.08836.40515-.60189.87032-.32595.2576.44683.48435.8128.71193,1.17877s.12838.58354-.38681,1.13792c-.29678-.07-.70276-.18924-1.1871-.27844a1.76372,1.76372,0,0,1-.13839.59355,1.68386,1.68386,0,0,0-.98953-.71193C58.96451,100.2246,58.90532,100.06538,58.84614,99.907Zm.75611-24.74535a.48658.48658,0,0,1-.65274-.29678.4744.4744,0,0,1,.21758-.62356.54715.54715,0,0,1,.65357.29761A.5362.5362,0,0,1,59.60225,75.16163Zm.55353,35.71939c-.02917-.07919-.1092-.04918-.13838-.12838l.15839-.06C60.2058,110.77265,60.12661,110.80183,60.15578,110.881Zm2.07243-8.44894a.82389.82389,0,0,1-.57437,1.11791.90532.90532,0,0,1-1.00871-.52519c-.22758-.366-.02834-.80113.416-1.05872A.92267.92267,0,0,1,62.22821,102.43208Zm-1.20961,4.24406a.25236.25236,0,0,1-.40515-.11921c-.0892-.23759.01-.45517.19841-.43432.0792-.03.21758.09836.43516.19757C61.11864,106.45856,61.09863,106.64613,61.0186,106.67614Zm.78863-11.39753a1.07537,1.07537,0,0,1-.396.87032.737.737,0,0,1-.71277-.45516c-.14838-.396.11-.67358.22842-1.07873C61.28287,94.84262,61.56047,95.10021,61.80723,95.27861Zm-.59189-3.75054a.38666.38666,0,0,1-.46434-.27677c-.13921-.12838.01-.45517.1684-.51436a1.13724,1.13724,0,0,1,.406.11921A.44719.44719,0,0,1,61.21534,91.52807Zm-.24259,63.00652c-.1092-.04918-.13922-.12921-.21758-.0992.07836-.03.04919-.10838.12838-.13839l.10838.05C61.02194,154.42538,60.94274,154.45539,60.97275,154.53459ZM61.588,97.346c.03.0792.0892.23759.14839.396a.641.641,0,0,1-.2576.2776,1.84593,1.84593,0,0,1-.48518-.09c-.10837-.04919-.16672-.20758-.19674-.28677.01918-.18757.1784-.24676.22759-.3568A1.47484,1.47484,0,0,1,61.588,97.346Zm-.25343,11.37836c-.1092-.04919-.1092-.04919-.16839-.20841.07919-.02918.15839-.05919.1884.02C61.38374,108.616,61.38374,108.616,61.33455,108.7244Zm.32929,48.62039c-.03-.0792-.10921-.04918-.13922-.12838l.04919-.10921a.08364.08364,0,0,0,.1092.05C61.713,157.23642,61.63383,157.26559,61.66384,157.34479Zm.75028-49.83667c.06919-.29761.06919-.29761.51435-.55354C62.78008,107.28136,62.76008,107.46893,62.41412,107.50812Zm.35179-10.15124c.07836-.02918.15839-.05919.18757.02C62.79509,97.43607,62.79509,97.43607,62.76591,97.35688Zm1.35133,6.9859a.08374.08374,0,0,1-.1092-.04918c-.07837.03-.02918-.08-.05919-.15839A.30918.30918,0,0,1,64.11724,104.34278Zm.3668-.94951a.18161.18161,0,0,1-.21758-.09921s.02-.18756.09837-.21758c.10921.05.21842.09921.32679.14923C64.56324,103.36409,64.51322,103.47246,64.484,103.39327Zm.93952,1.5439c.02917.07919.13755.12921.16756.20841a.64328.64328,0,0,1-.2576.27677.26354.26354,0,0,1-.18757-.02.18159.18159,0,0,0-.21758-.0992C65.04675,104.89715,65.176,104.75877,65.42356,104.93717Zm.62356-.50435-.21841-.09921a.18287.18287,0,0,1,.0992-.21758c.0792-.02917.10921.05086.21758.09921C66.0963,104.32361,66.12548,104.40364,66.04712,104.43282Zm.06086-2.73018c.02917.07837.05918.1584-.02085.18757l-.10837-.04918S65.94875,101.76183,66.108,101.70264Zm.2059,3.44294a.29366.29366,0,0,1,.02-.1884c.13839.12921.13839.12921.16756.20841A.29072.29072,0,0,1,66.31388,105.14558Zm1.23879,31.03892a.64328.64328,0,0,1-.25759.27677.20951.20951,0,0,1-.19757-.2876c.04918-.10838.0992-.21675.1984-.43433A1.50192,1.50192,0,0,1,67.55267,136.1845Zm3.28288-48.61872c-.10921-.04836-.21841-.09921-.21841-.09921-.03-.07836-.03-.07836.02-.18757.03.08.10921.05.21842.09837C70.77553,87.40738,70.80554,87.48741,70.83555,87.56578Zm-.02834,14.63455c-.03-.08-.10921-.05085-.13839-.12922a.30026.30026,0,0,0,.12838-.13838c.0792-.02918.10837.04918.13839.12838A.25811.25811,0,0,0,70.80721,102.20033Zm.842-20.17493c-.10837-.04918-.10837-.04918-.13838-.12838l.15839-.05919C71.6992,81.917,71.62,81.947,71.64918,82.0254ZM72.046,98.03463a.29513.29513,0,0,1,.13839.12921c-.0792.03-.05.10838-.12838.13755-.02918-.07836-.02918-.07836-.13839-.12754C71.99681,98.14384,71.96763,98.06381,72.046,98.03463Zm.431,8.14383a.08365.08365,0,0,1-.10921-.05.08265.08265,0,0,1,.05-.10837l.10837.04918A.083.083,0,0,1,72.477,106.17846Zm.59438-19.63056a.08218.08218,0,0,1-.10837-.04835c-.03-.08-.03-.08.04918-.11C73.01218,86.38951,73.04136,86.46954,73.07137,86.5479Zm.14422-27.58557a.36859.36859,0,0,1-.16756-.20758.64874.64874,0,0,1,.346-.04C73.34481,58.82478,73.29479,58.93232,73.21559,58.96233Zm.25593,38.53877c-.05.10921-.29678-.07-.356-.22759-.05918-.15839.01-.45516.19758-.43516.10837.05.29677.07.51519.16923C73.72828,97.22433,73.62991,97.44191,73.47152,97.5011Zm-.30595-2.50342c-.05919-.15756.14839-.32679.22842-.356.10921.05.29594.07.356.22842a.621.621,0,0,1-.08.75111C73.18558,95.532,73.09638,95.29529,73.16557,94.99768Zm.55771-5.98554c-.03-.07919.02-.18757-.01-.2676.08-.02917.1584-.05919.18841.02084.02917.07837-.05.10838-.02.18757C73.80247,88.98213,73.80247,88.98213,73.72328,89.01214Zm2.08827,16.18846c.366.49518.326.87032-.12922,1.58392-.72276-.00167-.72276-.00167-1.23629-.892.0692-.29761.21842-.62356.28761-.92034C75.20883,104.79462,75.584,104.83463,75.81155,105.2006Zm.35429-13.7634c.01.26843.02.5352.05836.88116-.31678.11837-.55354.20757-.71193.26676a.7824.7824,0,0,1-.36513-1.218,9.16955,9.16955,0,0,1,.95952-.81029C76.14584,90.90367,76.15584,91.17044,76.16584,91.4372Zm-.96452-8.84576c-.03-.07836-.1092-.04835-.13922-.12838C75.14213,82.43305,75.17131,82.51308,75.20132,82.59144Zm.43183,5.25444a.4755.4755,0,0,1,.32762-.57438.53448.53448,0,0,1,.54353.24759.54645.54645,0,0,1-.29677.65441A.47443.47443,0,0,1,75.63315,87.84588Zm.14839,1.11874c.02917.07837.1092.04835.13838.12838C75.84072,89.12218,75.81071,89.043,75.78154,88.96462Zm.887,5.26361c-.356-.22842-.7111-.45517-.70109-.91034.06836-.29761.16756-.51519.43516-.52436.23759-.0892.376.04.51435.1684.02918.07919.16757.20841.19758.28677C76.99615,93.65468,77.0345,94.00064,76.66853,94.22823Zm-.0917-12.78387c.32679.14838.386.30678.20758.55437-.23676.0892-.42516.07-.65275-.29678C76.29006,81.64276,76.41927,81.50354,76.57683,81.44436ZM77.99735,89.579a.63749.63749,0,0,1-.426.06919.37651.37651,0,0,1-.33512-.416c.01917-.1884.14755-.32679.47517-.1784.05836.15839.11838.31679.20675.55437Zm-.21341-25.64736a.29272.29272,0,0,0-.18757-.01917c-.03-.07837.02-.18841-.04-.3468a.44033.44033,0,0,0,.29761.06919C77.80478,63.74492,77.86314,63.90248,77.78394,63.93166Zm-.13088,56.55707c.14839-.32762.57438-.396.69275-.08a.51921.51921,0,0,1,.09921.50518c.01.2676-.04.376-.3568.49435C77.56469,120.97307,77.50467,120.81468,77.65306,120.48873Zm.2651-30.88054a.65059.65059,0,0,1,.25759-.2776c.2776-.46434.74194-.18673.86032.12922a1.03383,1.03383,0,0,1-.04919.832c-.2676.01-.456-.01084-.72193,0-.11921-.31762-.1784-.476-.2676-.71276Zm.862-2.76018c-.18757-.01917-.11838-.316.04-.37514a.36182.36182,0,0,1,.54437.24759C79.18612,86.96722,78.97855,87.13562,78.78014,86.848Zm.30178,9.00415c-.0792.02918-.21675-.0992-.21675-.0992-.10921-.04919-.05919-.15756.01917-.18757.0792-.02918.18841.02.53437-.02C79.21113,95.71377,79.16111,95.82215,79.08192,95.85216Zm-.02251-29.237c-.0792.02918-.10921-.05085-.13839-.12922C79.00022,66.45676,79.0294,66.53512,79.05941,66.61515Zm.25259,7.667c-.08836-.23759-.11837-.316-.17756-.47435-.02918-.07919.12921-.13838.17756-.24759C79.6688,73.78862,79.64879,73.97619,79.312,74.28214Zm.32679-1.29548a.29527.29527,0,0,1-.12838.13838l-.10837-.05c-.03-.07837.04918-.10838.09836-.21675A.30031.30031,0,0,0,79.63879,72.98666Zm.06-.56437c-.10837-.04919-.16756-.20675-.19757-.28678.14839-.32595.14839-.32595.74194-.18673C80.01559,72.30391,80.01559,72.30391,79.69881,72.42229Zm2.16663.00166a.64975.64975,0,0,1-.94951-.3668.58545.58545,0,0,1,.39681-.86949c.47517-.1784.69192-.07919.9195.28678A.64975.64975,0,0,1,81.86544,72.424Zm-.401,10.26086a.25263.25263,0,0,1-.40515-.11921.25965.25965,0,0,1,.19757-.43516c.1584-.05919.29678.06919.40515.11838C81.56283,82.46723,81.54366,82.6548,81.46446,82.68481Zm.21341,6.5991-.21758-.09921a.446.446,0,0,1,.07-.29594,1.08663,1.08663,0,0,0,.29594.06919C81.77708,89.06633,81.72789,89.17553,81.67787,89.28391Zm.20508,4.1657c-.07836.03-.29594-.06919-.29594-.06919-.03-.0792-.01-.2676.06919-.29761.07919-.02918.18757.02.376.04C81.98215,93.232,81.963,93.4196,81.88295,93.44961Zm.18423,24.84414c-.26676.01-.32595-.14839-.38514-.30678.01917-.1884-.01-.26676.14756-.326.05-.10921.15922-.05919.39681-.14839A2.33774,2.33774,0,0,1,82.06718,118.29375Zm.7186-28.70223a.26559.26559,0,0,0,.1884.02c.27677.25676.0692.42515-.06.56354-.12838.13755-.316.11838-.48434-.0892C82.5582,89.94749,82.6574,89.72991,82.78578,89.59152Zm1.74481-23.31066a.26545.26545,0,0,0,.12921-.13839c.02918.07837.13755.12922.16757.20841a.25849.25849,0,0,0-.12839.13755C84.669,66.41007,84.5606,66.36089,84.53059,66.28086Zm.371,9.4293a.2623.2623,0,0,0-.1884-.01917c-.02918-.0792.05-.10921.02-.18924.0792-.02918.10921.05085.18841.02084C84.87155,75.6318,84.87155,75.6318,84.90156,75.71016Zm0,17.60273c-.0792.03-.05.10921-.12921.13838C84.74317,93.37208,84.82236,93.3429,84.90156,93.31289ZM86.9123,54.55821a.29244.29244,0,0,1,.02-.1884.29673.29673,0,0,1,.18757.02.2895.2895,0,0,1-.02.18757A.30007.30007,0,0,1,86.9123,54.55821Zm.38848-4.74925c-.10921-.05-.18841-.02-.21758-.0992a.29361.29361,0,0,1,.02-.1884c.07837-.02918.10838.05.26677-.00917A.442.442,0,0,0,87.30078,49.809Zm1.13458,39.92345a.26022.26022,0,0,1-.02.1884C88.38618,89.84161,88.35616,89.76242,88.43536,89.73241ZM89.95925,72.8241a.4.4,0,0,1-.24759.54437.46433.46433,0,0,1-.48434-.0892c-.30678-.33679-.12922-.58438.12838-.86115C89.70166,72.37894,89.94925,72.55733,89.95925,72.8241Zm-.44183-6.9659a.25815.25815,0,0,1,.02-.18757C89.56661,65.749,89.59662,65.829,89.51742,65.8582Zm.19424,24.39023a.31155.31155,0,0,1-.00917-.2676c.26677-.00917.37514.04.36514.49518C89.85088,90.37681,89.74167,90.32763,89.71166,90.24843Zm2.69183,17.31637a.44685.44685,0,0,1,.06919-.29677c.02918.07919.18757.02.21758.0992s-.02.18757.01917.53353C92.46184,107.72319,92.43266,107.644,92.40349,107.5648Zm.451-28.69389a.18028.18028,0,0,1-.21758-.09837.30025.30025,0,0,1,.12838-.13839s.1092.04919.21841.09921A.29353.29353,0,0,0,92.85449,78.87091Zm.60939,24.77578c.26676-.00917.32678.14923.25676.446C93.23629,104.00349,93.23629,104.00349,93.46388,103.64669Zm.26926-4.34326a.2967.2967,0,0,1-.18757-.02c-.03-.07836-.05918-.15839-.05918-.15839.07919-.03.18756.02084.26759-.00917A.26145.26145,0,0,0,93.73314,99.30343Zm.71277-34.74821a.31338.31338,0,0,1-.20841.1684.44276.44276,0,0,1,.04-.37681A.86486.86486,0,0,0,94.44591,64.55522Zm2.23165,7.64948a.71256.71256,0,0,1,.436-.52352c.26677-.01084.75111.07836.87032.39514.14756.39682-.11.67359-.39681.87116C96.91431,72.83827,96.74675,72.62986,96.67756,72.2047Zm8.89661,14.36154a.2903.2903,0,0,1-.12922.13838c-.10837-.04918-.13755-.12754-.24675-.17839a1.23928,1.23928,0,0,0,.1784-.24676A.63711.63711,0,0,1,105.57417,86.56624Z"/>
    <path class="cls-1" d="M71.71087,28.11181c.08-.03.15839-.05919.1884.02084A.26348.26348,0,0,1,71.71087,28.11181ZM82.2064,49.63807c.10921.04918.29761.06919.51519.16839a2.9959,2.9959,0,0,1,.45433.73277c.2476.1784.80113-.02918.85115.58438a1.17433,1.17433,0,0,1-.48518.63357,1.71616,1.71616,0,0,1-1.04872-.872c-.366-.49518-.52352-1.15876-1.09707-1.48471-.13838-.12838-.0892-.23842-.18757-.74194C81.93047,48.65771,82.03884,48.70772,82.2064,49.63807Zm5.527,7.04759-.10837-.04835c-.03-.08.04919-.11.12838-.13922C87.81263,56.65648,87.73343,56.68566,87.73343,56.68566ZM94.285,72.01547c.17757.47517.17757.47517-.2676.73277A.72447.72447,0,0,1,94.285,72.01547Zm4.38412,16.77409a.18208.18208,0,0,1-.1.21758.294.294,0,0,1-.13838-.12922.29071.29071,0,0,0,.02-.18756C98.55992,88.73954,98.74749,88.75955,98.66913,88.78956Zm1.45887-8.39893-.10921-.05085c-.02918-.07836.05-.10754.0992-.21758A.3132.3132,0,0,1,100.128,80.39063Zm.88032-16.21721a.46429.46429,0,0,1,.30678-.386c.12838-.13838.45517.01084.46434.2776a.99809.99809,0,0,1-.52436,1.00954A.7556.7556,0,0,1,101.00832,64.17342Zm.25926,12.99186a.44592.44592,0,0,1-.07.29594L100.98,77.362a.45606.45606,0,0,1,.07-.29678C101.15838,77.1161,101.34678,77.1361,101.26758,77.16528Zm.18257-43.39639a.18247.18247,0,0,1-.0992.21758l-.21758-.0992c.05-.10837.0992-.21758.14838-.32679A.67613.67613,0,0,1,101.45015,33.76889Zm-.24509,48.294c.05-.11.23759-.0892.23759-.0892.24759.1784.22758.3668.02.53353C101.08668,82.4689,101.10586,82.2805,101.20506,82.06292Zm.135-46.17742a.29.29,0,0,0,.18757.02085c-.04919.10837-.09837.21758-.09837.21758-.0792.03-.1884-.02085-.2676.00917C101.21173,36.02472,101.26091,35.91552,101.34011,35.8855Zm1.75731,43.03209c-.0892-.23759.11838-.406.24759-.54436a.4798.4798,0,0,1,.67192.1092.95919.95919,0,0,1,0,.72277c-.09921.21758-.19757.43432-.57438.396C103.2258,79.502,103.1366,79.26439,103.09742,78.91759Zm.81113-54.01279c.05919.15839.05919.15839-.02.1884C103.85937,25.014,103.82936,24.93481,103.90855,24.9048Zm.58189,4.20488a.30886.30886,0,0,1-.43516-.19758.25234.25234,0,0,1,.11921-.40514c.12838-.13922.42515-.07.54353.24675C104.668,28.86292,104.64883,29.05049,104.49044,29.10968Zm2.11077,46.14782c-.07919.03-.20757.16922-.396.14838a.6421.6421,0,0,1-.30594-.33679c.04918-.10837.06919-.29594.11837-.40515.04919-.10837.20841-.16756.446-.25676C106.76961,74.74314,106.77961,75.01074,106.60121,75.2575ZM106.412,95.72878l-.10838-.04835C106.3828,95.65042,106.3828,95.65042,106.412,95.72878Zm.10754-68.19135a.37554.37554,0,0,1,.11921-.40431c.18757.01834.29677.06919.326.14838.03.07837-.0992.21758-.11838.406C106.70708,27.55827,106.54953,27.61746,106.51952,27.53743Zm.92784,39.37033c-.10921-.05-.21758-.09921-.21758-.09921.04918-.1092.0992-.21674.0992-.21674a.44656.44656,0,0,1,.29678.06835C107.57574,66.76937,107.52572,66.87774,107.44736,66.90776Zm.54687-23.13185a.30947.30947,0,0,1,.01.26676.65306.65306,0,0,1-.19757-.28677A.26348.26348,0,0,0,107.99423,43.77591Zm1.30214,7.09428a.43.43,0,1,1-.792.29594.38688.38688,0,0,1,.16923-.51436C108.98959,50.5334,109.208,50.63343,109.29637,50.87019Zm-.76528,5.43116.0992-.21758c.10921.05.2676-.00917.29761.06919.02918.08-.02.18841-.04.37681A.91017.91017,0,0,1,108.53109,56.30135Zm.47184-45.76017c.02918.07919-.05.1092-.02.1884-.10837-.05-.10837-.05-.13838-.12922a.64615.64615,0,0,1-.01-.26676C108.97292,10.462,108.97292,10.462,109.00293,10.54118Zm-.03,34.40182c-.02918-.07836.05-.10753.02-.18756a.29041.29041,0,0,1,.1884.02084c.02918.07836-.05.10754-.02.18673C109.053,44.91383,109.053,44.91383,108.97292,44.943Zm.25092-5.59956c-.03918-.346.19841-.43432.53437-.7411C109.699,39.16588,109.699,39.16588,109.22384,39.34344Zm.49018,42.78283c-.27676-.25676-.27676-.25676-.04835-.61272C109.94244,81.77114,109.81323,81.90953,109.714,82.12627Zm.63107-31.106a.3092.3092,0,0,0-.2676.00834.51147.51147,0,0,1-.15756-.66191c.12922-.13839.28761-.19841.56354.05835C110.4643,50.61342,110.3651,50.831,110.34509,51.02024Zm-.39264-5.63124a.84757.84757,0,0,1,.20841-.16756c.05918.15839.0892.23675.11837.31678-.05.10838-.05.10838-.12921.13839C110.04165,45.62659,109.98162,45.4682,109.95245,45.389Zm.84531-6.90587c-.15839.05919-.406-.11755-.49519-.356.02085-.18757.04085-.376.19841-.43516.23759-.08836.456.01.57438.32679A.34053.34053,0,0,1,110.79776,38.48313Zm-.481,27.89193c.05-.10921.0992-.21758.0992-.21758a.1816.1816,0,0,1,.21758.0992c.03.0792-.05.10921-.0992.21758C110.426,66.42424,110.34676,66.45426,110.31675,66.37506Zm.56771-6.4407a.56406.56406,0,0,1,.26759-.73111.485.485,0,0,1,.65191.296.56536.56536,0,0,1-.26676.73277A.48747.48747,0,0,1,110.88446,59.93436Zm.40848-4.93682c.0792-.02918.23759-.0892.31678-.11838a.36321.36321,0,0,1,.43516.19757.35434.35434,0,0,1-.05919.56355c-.12921.14005-.446.25842-.65357.42515A2.41017,2.41017,0,0,1,111.29294,54.99754Zm.19757-17.31554c-.05919-.15756-.14839-.396-.20757-.55354-.03919-.346.21758-.62356.406-.60355a.65821.65821,0,0,1,.74194.53436c-.02.18757-.11838.40682-.1884.70276A2.52984,2.52984,0,0,0,111.49051,37.682Zm.02084,16.692s-.1092-.04919-.21841-.09921a.295.295,0,0,0,.12921-.13838c.05-.10837.18841.02.26677-.01C111.63973,54.23559,111.59055,54.3448,111.51135,54.374Zm-.14588-21.60879a.69074.69074,0,0,1,.366-.95035.79857.79857,0,0,1,1.0879.49685c.11838.316-.05918.56271-.45516.71109C111.889,33.20035,111.513,33.16117,111.36547,32.76519Zm.26759,16.14678c.03.08-.04918.1092-.12921.13921-.05919-.15839-.0892-.23842-.03918-.34679C111.57388,48.75357,111.68225,48.80443,111.63306,48.912Zm.36431,19.54219c.06.15839-.0892.48434-.27677.46434-.08.03-.21758-.09837-.24759-.1784a1.48538,1.48538,0,0,1,.16839-.51436A1.1747,1.1747,0,0,0,111.99737,68.45416ZM111.944,42.0261c-.436-.19757-.446-.46517-.406-.84115.03-.64357.476-.90033,1.02955-1.1079.43516.19924.49434.3568.45516.73277-.07.29677-.24842.54436-.31761.84114C112.46754,41.74016,112.18077,41.93773,111.944,42.0261Zm-.38764-15.74163c-.03-.0792-.03-.0792.05-.10921A.08375.08375,0,0,1,111.55637,26.28447Zm1.01787,38.16321c-.23842.0892-.59355-.14005-.74194-.53519a.55114.55114,0,0,1,1.05873-.30678A.7285.7285,0,0,1,112.57424,64.44768Zm-.34512-2.12828a.22439.22439,0,0,1-.32679-.14839c-.03-.07919.0992-.21674.0992-.21674.10838.04835.21758.09837.326.14755A.18161.18161,0,0,0,112.22912,62.3194Zm-.025-8.74655a.54036.54036,0,0,1,.47517-.17757Zm.98536,5.76879a.47143.47143,0,0,1-.62189-.21758.68123.68123,0,0,1,.04918-.83114c.416-.33679.68275-.34513,1.20711.09C113.843,58.91648,113.61546,59.27328,113.18947,59.34164Zm-.21091,6.66828a.45061.45061,0,0,1,.06919-.29594c.08-.03.2676-.01.29678.06919-.05.10838-.09837.21758-.14839.326C113.08777,66.05994,112.97856,66.00992,112.97856,66.00992Zm.78779-9.95282a.37246.37246,0,0,1-.49518-.35514.40126.40126,0,1,1,.802-.03A.32311.32311,0,0,1,113.76635,56.0571Zm.145-12.87224c-.07836.02917-.13755-.12838-.16756-.20841a.18241.18241,0,0,1,.09837-.21758c.0792-.02918.1884.02084.406.12C114.03978,43.04647,113.9906,43.15485,113.9114,43.18486Zm.45684-19.75811a.23967.23967,0,0,1-.14839-.396.50267.50267,0,0,1,.346-.03918c.15964-.06.218.09837.4956.356A3.7822,3.7822,0,0,1,114.36824,23.42675Zm-.15089,21.5396a1.161,1.161,0,0,1,.33679-1.02872.436.436,0,0,1,.64315.03,1.3948,1.3948,0,0,1,.356.95035,1.13919,1.13919,0,0,1-.56438.66191C114.5333,45.5699,114.3649,45.36233,114.21735,44.96635Zm.84739,7.08427a.36478.36478,0,0,1-.43557-.19757c-.0892-.23842.01-.456.278-.46434.15755-.05919.29594.06919.40515.11838A.4539.4539,0,0,1,115.06474,52.05062Zm-.28177,7.68783a.30966.30966,0,0,0-.168-.20758c.07877-.02917.1588-.05918.1588-.05918.0792-.03.10838.04835.13839.12838C114.833,59.63008,114.86217,59.70844,114.783,59.73845Zm.02335,12.35872c-.03-.0792-.13964-.13005-.16882-.20841a.29753.29753,0,0,1,.1288-.13922,1.0081,1.0081,0,0,0,.29678.07C114.9347,71.95878,114.8555,71.988,114.80632,72.09717Zm.59355,16.29558c-.04919.1092-.04919.1092-.20758.16839a.29972.29972,0,0,1,.02-.1884C115.29149,88.34356,115.32151,88.42276,115.39987,88.39275Zm.53269-48.4916c-.07919.03-.23758.0892-.31678.11838-.0792.03-.21758-.09921-.21758-.09921-.0892-.23758-.17757-.47434-.04918-.61356a8.64485,8.64485,0,0,1,.91033-.70109C116.121,39.19839,116.05094,39.49517,115.93256,39.90115Zm.02751,2.96859c-.07919.02918-.10837-.05-.18757-.02.05-.10837.05-.10837.12839-.13755C115.90089,42.71218,115.9309,42.79055,115.96007,42.86974Zm.02,17.41391c.0892-.48434-.00917-.99036.37681-1.40468a1.98709,1.98709,0,0,0,.54436.24759.93018.93018,0,0,1,.96953.17923.6422.6422,0,0,1-.25843.27594,1.78312,1.78312,0,0,0-.90033.96952C116.38606,60.402,116.19766,60.38285,115.98008,60.28365Zm.43683-2.691c.03.0792-.0992.21758-.0992.21758a.18247.18247,0,0,1-.21758-.0992s.04918-.10921.0992-.21675C116.30854,57.54264,116.41691,57.59266,116.41691,57.59266Zm.16423,6.7083c.03.0792-.12838.13839-.12838.13839-.3468.03918-.356-.22759-.25677-.44517C116.62115,63.925,116.68117,64.08338,116.58114,64.301Zm.13171-5.91718c-.10837-.04918-.10837-.04918-.13755-.12838C116.68367,58.30542,116.68367,58.30542,116.71285,58.38378Zm.30595-32.69953a.29071.29071,0,0,1-.18757-.02.21548.21548,0,1,1,.366-.22758C117.148,25.54587,117.098,25.65424,117.0188,25.68425ZM117.01046,57.731c-.10921-.04918-.10921-.04918-.13922-.12838C116.95127,57.57265,116.98128,57.65185,117.01046,57.731Zm.53937,8.193a.29794.29794,0,0,1-.18757-.02c-.02918-.07919-.05919-.15756.01-.45516Zm.87365-5.382a.1687.1687,0,1,1-.316.11838c-.03-.0792.04919-.10838.03918-.376C118.2851,60.4137,118.3943,60.46288,118.42348,60.54208Zm-.26927-48.462a.16924.16924,0,0,1,.31679-.11921c.03.07919-.04919.1092-.14839.32678C118.2926,12.20846,118.18339,12.15927,118.15421,12.08008Zm.54437,53.05286a.5117.5117,0,0,1,.63357-.23759.6403.6403,0,0,1,.15756.66358c-.09921.21758-.30678.386-.52436.28677a1.176,1.176,0,0,1-.356-.22759A1.83678,1.83678,0,0,1,118.69858,65.13294Zm.3443-14.7521a.2657.2657,0,0,1-.01918.18757c-.03-.07836-.10921-.04919-.13922-.12838ZM119.0137,48.857a.08318.08318,0,0,1,.05-.10838c.07919-.02918.10837.04919.13838.12922A.29773.29773,0,0,1,119.0137,48.857Zm.76028-14.36613a.39942.39942,0,0,1,.24759-.54353.36429.36429,0,0,1,.436.19841.38787.38787,0,0,1-.16923.51519C120.05158,34.74925,119.86318,34.72841,119.774,34.49082Zm.72193,1.44554c-.0792.03-.32595-.14839-.19841-.28678a.31282.31282,0,0,1,.20841-.16839,1.186,1.186,0,0,1,.356.22758A3.5613,3.5613,0,0,0,120.49591,35.93636Zm.11337,26.58561c.09921-.21758.22842-.356.44517-.25676.1884.02.27677.2576.25759.44517-.06919.29677-.1984.43516-.68275.346C120.6493,62.86877,120.5601,62.63118,120.60928,62.522Zm1.60059-14.04933c-.20757.16839-.42515.07-.59355-.13839a.56589.56589,0,0,1,.1684-.51519.453.453,0,0,1,.54436.24843C122.2799,48.17669,122.25989,48.3651,122.20987,48.47264Zm-.42349,14.78294a.29889.29889,0,0,1-.13838-.12922.29367.29367,0,0,1,.02-.1884c.07919-.03.1884.02084.29677.07C121.9156,63.11719,121.86558,63.22557,121.78638,63.25558Zm.92284-22.37074c-.03-.07919-.13921-.12838-.24675-.17839-.03-.0792.09837-.21758.09837-.21758.07919-.03.1884.02.32678.14838C122.83844,40.74646,122.75841,40.77564,122.70922,40.88484Zm.42516,54.18036a.18357.18357,0,0,1-.0992.21842s-.10921-.04919-.21842-.09921c0,0,.05-.10837.1-.21758C123.02517,95.01685,123.13438,95.0652,123.13438,95.0652ZM123.02351,62.702l-.13839-.12921a.18121.18121,0,0,1,.09921-.21758s.10837.04918.21758.0992C123.15189,62.56366,123.1027,62.672,123.02351,62.702Zm.48518-18.95781a.4439.4439,0,0,1-.29678-.06919c.05-.10838.0992-.21758.14922-.326a1.04958,1.04958,0,0,0,.29594.0692C123.52869,43.55666,123.5587,43.63586,123.50869,43.74423Zm.00083,16.87955a.30989.30989,0,0,1,.19757-.43516.34061.34061,0,0,1,.46517.2776c.05919.15839-.01.45517-.16839.51435A.46376.46376,0,0,1,123.50952,60.62378Zm.42265,21.86763a.29573.29573,0,0,1,.18841.01917.18121.18121,0,0,1-.09921.21758.29392.29392,0,0,0-.18757-.01917C123.88216,82.599,123.93217,82.49141,123.93217,82.49141Zm.13505-28.5751a.2136.2136,0,0,1,.376.04c.16839.20841.03918.346-.19841.43433C124.02721,54.29145,123.85881,54.08387,124.06722,53.91631Zm.46934-7.66782c.05919.15839-.06919.29677-.25759.27676-.07836.03-.21758-.0992-.24676-.1784-.03-.07919.0992-.21758.11838-.40514A.76353.76353,0,0,1,124.53656,46.24849Zm1.10291,8.975c.0992-.21842.30678-.386.52519-.28678a.30836.30836,0,0,1,.16756.20758c.01.26676-.11837.406-.46517.44433-.07919.03-.1092-.04835-.21758-.0992A.31052.31052,0,0,1,125.63947,55.22346Zm1.49472,17.49393c.29594.792.27593.9787-.49519,1.0879a3.55832,3.55832,0,0,0-.22758-.366c.04-.376-.34679-.68359-.22675-1.08874A5.47968,5.47968,0,0,1,127.13419,72.71739Zm-.57355-36.25334a.25827.25827,0,0,1-.13838-.12838.083.083,0,0,1,.04918-.10921,1.12889,1.12889,0,0,1,.426-.06919C126.60983,36.35484,126.56064,36.46405,126.56064,36.46405Zm.25093,28.88146c.19757.28678.19757.28678-.0892.48518C126.5248,65.54309,126.5248,65.54309,126.81157,65.34551Zm.77028-14.09852c-.08.02918-.08.02918-.15839.05919-.03-.0792.04918-.10921.01917-.1884C127.47264,51.197,127.55184,51.1678,127.58185,51.247Zm.17673,19.52135c.22675.366.09837.50436-.15922.78112C127.4518,71.15348,127.471,70.96592,127.75858,70.76834Zm.05252-23.48948c-.02918-.07919.04919-.10837.09921-.21758.03.0792.10837.05.13838.12922-.0792.02918-.04919.10921-.0992.21758A.26218.26218,0,0,1,127.8111,47.27886Zm1.34383,21.43206a1.83061,1.83061,0,0,1-.11.67275c-.12838.13755-.25676.27677-.44516.25676a.46312.46312,0,0,1-.49435-.356.89588.89588,0,0,1,.446-.97952A.6705.6705,0,0,1,129.15493,68.71092Zm-.60356-18.00746c-.03-.08-.13921-.12922-.16839-.20841a.29394.29394,0,0,1,.12921-.13839c.07837-.03.10838.05.29678.0692C128.67976,50.56507,128.63057,50.67345,128.55137,50.70346Zm.09421-43.63356c-.05.10921-.18841-.02084-.21842-.0992-.03-.08.1-.21758.1-.21758a.44168.44168,0,0,1,.29594.06919C128.774,6.93068,128.72477,7.03989,128.64558,7.0699Zm-.11671,65.03477a.26566.26566,0,0,0,.1884.02c.05919.15755.08836.23758.03918.346-.0792.03-.0792.03-.15756.05918A.76284.76284,0,0,1,128.52887,72.10467Zm.20174-24.5382c.03.0792.06.15839-.02.1884a.08278.08278,0,0,1-.10837-.05S128.57222,47.62566,128.73061,47.56647Zm1.739,5.126c.10837.05.2676-.00917.29678.07a3.42922,3.42922,0,0,1-.03168,2.80937,1.212,1.212,0,0,1-1.04872.57354,1.77866,1.77866,0,0,1-.96869-.90033,1.27232,1.27232,0,0,1,.69275-1.52389,3.40159,3.40159,0,0,1,.87116-.326C130.3512,53.09851,130.44957,52.88093,130.46958,52.69252Zm-.25509-4.05649a3.5316,3.5316,0,0,1-.18841.70193.44617.44617,0,0,1-.66274.15839c-.21758-.09921-.27677-.2576-.12838-.58355-.02918-.0792.0992-.21841.1784-.24759A1.608,1.608,0,0,1,130.21449,48.636Zm-.88783-5.26444a.29394.29394,0,0,1-.13838-.12921l.02-.18674a.45059.45059,0,0,1,.29678.06836C129.45587,43.234,129.40586,43.34242,129.32666,43.37159Zm.4535-32.30439a.44057.44057,0,0,1,.25843-.27677c.04918-.1092.23675-.08919.42516-.06919C130.24617,11.34481,130.24617,11.34481,129.78016,11.0672Zm.17173,29.63341a.26348.26348,0,0,1,.02-.18757c.03.07836.13838.12838.16839.20841C129.9819,40.78064,129.9819,40.78064,129.95189,40.70061Zm.426,17.53312a3.26571,3.26571,0,0,1-.33679-.416c-.02918-.07919.0992-.21674.14839-.32678a3.44745,3.44745,0,0,1,.53519-.01918C130.57545,57.79774,130.52627,57.90778,130.37788,58.23373Zm.00834-14.44615s-.02.1884-.1.21841a.18206.18206,0,0,1-.21758-.0992.44867.44867,0,0,1,.06919-.29594C130.24783,43.6592,130.35621,43.70838,130.38622,43.78758Zm.51185,21.382a.26351.26351,0,0,1,.18757.02C130.92725,65.24881,130.92725,65.24881,130.89807,65.16962Zm.48351-33.6699a.38277.38277,0,0,1,.14839-.32595c.31678-.11921.48518.0892.49518.356C131.76756,31.80734,131.58,31.78733,131.38158,31.49972Zm.61606,13.21987-.1092-.05085a.298.298,0,0,1,.02-.18757c.08-.03.11.05.29678.06919C132.04766,44.60955,132.07684,44.68958,131.99764,44.71959Zm.13922,17.00709a.29171.29171,0,0,1,.1884.02084.2632.2632,0,0,1-.02.18757C132.16687,61.80671,132.16687,61.80671,132.13686,61.72668Zm.47684-73.47287c-.03-.08-.03-.08-.13838-.12922a.29685.29685,0,0,0,.12838-.13922.30025.30025,0,0,1,.13838.12839C132.66289-11.85623,132.66289-11.85623,132.6137-11.74619Zm.541,74.9876c-.336.30678-.336.30678-.65274-.29678Q132.82837,63.09219,133.15474,63.24141Zm-.60106-20.89686c.04919-.10837.04919-.10837.12838-.13755C132.63288,42.31454,132.63288,42.31454,132.55368,42.34455ZM133.22893,55a.68555.68555,0,0,1-.51519.55354C132.72458,55.09841,132.72458,55.09841,133.22893,55Zm.00834-15.89c-.07837.03-.26677.00917-.296-.06919-.16839-.20841-.04-.34679.22759-.3568C133.30729,38.81241,133.36648,38.97081,133.23727,39.11Zm-.20508,12.71385s.0992-.21758.12921-.13838a.18074.18074,0,0,1,.21758.09837c.03.07919-.02.1884-.14838.32678C133.17057,51.95225,133.0622,51.90307,133.03219,51.82387Zm.75861-10.75562c-.21758-.09837-.29677-.0692-.29677-.0692-.1684-.20757-.33679-.41515-.04835-.61272.09837-.21758.23675-.0892.51352.16756C133.93919,40.74313,133.81081,40.88068,133.7908,41.06825Zm.0767,21.90639c-.12838.13839-.1784.24759-.396.14839-.16756-.20841-.11838-.31678.0892-.48518C133.82832,62.62868,133.93752,62.67787,133.8675,62.97464Zm-.06-16.316c-.0792.03-.10838-.04836-.21758-.09837.07919-.02918.04918-.10838.0992-.21758,0,0,.10837.04918.21675.0992A.18138.18138,0,0,0,133.80748,46.65864Zm1.1896-4.05483a.71514.71514,0,0,1-.33679,1.02788.76066.76066,0,1,1-.53353-1.42469A.62159.62159,0,0,1,134.99708,42.60381ZM133.815,68.139c-.0792.03-.21758-.0992-.13839-.12838a.18147.18147,0,0,1,.09921-.21675c.03.0792.13838.12755.24675.1784A.64682.64682,0,0,1,133.815,68.139Zm.71276-17.14548c-.05.10838-.12921.13839-.17923.24676-.10837-.04918-.21758-.0992-.24676-.1784a1.0494,1.0494,0,0,0,.06919-.29594C134.30933,50.89436,134.49773,50.91354,134.52774,50.99356ZM134.321,47.5498c-.25676-.44433-.05836-.88116.60439-1.03788a3.73312,3.73312,0,0,1,.69275-.07837c.23759-.0892.406-.60439.87116-.32678.25676.44516.48351.81113.71109,1.17793.22758.366.12838.58355-.38681,1.13708-.29594-.06919-.70192-.1884-1.18627-.2776a1.76626,1.76626,0,0,1-.13922.59355,1.68337,1.68337,0,0,0-.98869-.71276Q134.40937,47.78739,134.321,47.5498Zm.75611-24.74494a.48781.48781,0,0,1-.65274-.29678.47369.47369,0,0,1,.21841-.62356.54653.54653,0,0,1,.65274.29761A.534.534,0,0,1,135.07711,22.80486Zm.55354,35.719c-.02918-.0792-.10838-.04919-.13839-.12922l.15839-.05919C135.68067,58.41546,135.60147,58.44464,135.63065,58.52384Zm2.07326-8.44895a.82407.82407,0,0,1-.57521,1.11708.90619.90619,0,0,1-1.00871-.52436c-.22675-.366-.02834-.80113.416-1.05872A.92287.92287,0,0,1,137.70391,50.07489Zm-1.20961,4.24323a.25259.25259,0,0,1-.406-.11838c-.08837-.23758.01-.45516.1984-.43516.0792-.02917.21758.09837.43516.19841C136.5935,54.10138,136.57349,54.28894,136.4943,54.31812Zm.78779-11.39753a1.0731,1.0731,0,0,1-.396.87116.73851.73851,0,0,1-.71276-.456c-.14756-.396.11-.67192.22841-1.0779C136.75773,42.48543,137.03533,42.74219,137.28209,42.92059Zm-.59105-3.74971a.38667.38667,0,0,1-.46517-.2776c-.13839-.12838.01-.45434.16839-.51352a1.16232,1.16232,0,0,1,.406.11837A.44717.44717,0,0,1,136.691,39.17088Zm-.24343,63.00694c-.1092-.05-.13838-.12838-.21758-.0992.0792-.02918.05-.10838.12838-.13839l.10921.05C136.4968,102.06861,136.4176,102.09779,136.44761,102.17782Zm.61606-57.1898c.02918.08.08837.23842.14756.396a.63166.63166,0,0,1-.2576.2776,1.83576,1.83576,0,0,1-.48434-.0892c-.10837-.04918-.16756-.20757-.19757-.2876.02-.18757.1784-.24676.22841-.35513A1.43971,1.43971,0,0,1,137.06367,44.988Zm-.25426,11.37919c-.10837-.05-.10837-.05-.16756-.20841.0792-.02918.15839-.05919.18757.02C136.85943,56.258,136.85943,56.258,136.80941,56.36721Zm.32929,48.62081c-.03-.08-.10921-.05-.13838-.12838l.04918-.11a.08356.08356,0,0,0,.10921.05085C137.18789,104.87881,137.10869,104.908,137.1387,104.988Zm.75028-49.83626c.06919-.29844.06919-.29844.51435-.5552C138.255,54.92334,138.23577,55.11091,137.889,55.15176Zm.35179-10.1529c.0792-.02918.1584-.05919.18841.02084C138.27079,45.07889,138.27079,45.07889,138.24077,44.99886Zm1.35133,6.98674a.08188.08188,0,0,1-.10837-.05c-.07919.03-.03-.07836-.05919-.15839A.31137.31137,0,0,1,139.5921,51.9856Zm.36681-.94869a.18382.18382,0,0,1-.21758-.1s.02-.18757.0992-.21675c.10837.04835.21758.09837.32679.14756C140.0381,51.0069,139.98808,51.11528,139.95891,51.03691Zm.93951,1.54307c.03.07836.13838.12922.16756.20758a.63614.63614,0,0,1-.25759.2776.26348.26348,0,0,1-.18757-.02.18036.18036,0,0,0-.21758-.0992C140.52161,52.5408,140.65166,52.40158,140.89842,52.58Zm.62356-.50435-.21758-.09837a.18136.18136,0,0,1,.0992-.21841c.07837-.02918.10838.05.21758.0992C141.57117,51.96642,141.60118,52.04645,141.522,52.07563Zm.06086-2.73017c.02917.07919.05919.15756-.02.18673l-.10921-.04835S141.42445,49.40465,141.58284,49.34546Zm.20591,3.4421a.289.289,0,0,1,.02-.18674c.13839.12755.13839.12755.1684.20758A.29048.29048,0,0,1,141.78875,52.78756Zm1.23879,31.04017a.64322.64322,0,0,1-.2576.27677.20926.20926,0,0,1-.19757-.28677c.05-.10921.0992-.21841.1984-.436A1.47362,1.47362,0,0,1,143.02754,83.82773Zm3.28287-48.61914c-.10921-.04919-.21841-.0992-.21841-.0992-.02918-.07837-.02918-.07837.02-.18757.03.07919.11.04918.21842.0992C146.25122,35.0502,146.2804,35.12939,146.31041,35.20859Zm-.02834,14.63372c-.03-.0792-.10921-.04919-.13839-.12838a.29566.29566,0,0,0,.12838-.13922c.08-.02918.10921.05.13839.12921A.25827.25827,0,0,0,146.28207,49.84231Zm.84281-20.17409c-.10921-.04919-.10921-.04919-.13839-.12838.0792-.02918.0792-.02918.15839-.05919C147.17406,29.55984,147.0957,29.58985,147.12488,29.66822Zm.396,16.00922a.29644.29644,0,0,1,.13838.12838c-.07836.03-.04918.10921-.12838.13839-.02918-.0792-.02918-.0792-.13838-.12755C147.47251,45.78665,147.44249,45.70662,147.52086,45.67744Zm.43182,8.14383a.08469.08469,0,0,1-.06-.15839l.10921.04835A.08463.08463,0,0,1,147.95268,53.82127Zm.59355-19.63056a.08237.08237,0,0,1-.10837-.04918c-.02918-.0792-.02918-.0792.04919-.10921C148.48705,34.03232,148.51706,34.11152,148.54623,34.19071Zm.14506-27.58515a.368.368,0,0,1-.1684-.20758.63413.63413,0,0,1,.346-.03918C148.81967,6.46718,148.77048,6.57555,148.69129,6.60556Zm.25509,38.53835c-.05.10921-.29677-.06919-.356-.22758s.01-.45517.19757-.43516c.10921.04918.29761.07.51519.16923C149.204,44.86714,149.10477,45.08472,148.94638,45.14391Zm-.30511-2.50342c-.05919-.15756.14839-.32679.22758-.356.10921.05.29678.06919.356.22758a.61957.61957,0,0,1-.08.75194C148.66044,43.17485,148.57208,42.93727,148.64127,42.64049Zm.55687-5.98554c-.02918-.07919.02-.18756-.00917-.26759.0792-.02918.15756-.05919.18757.02084.03.07836-.04919.10837-.02.18757Zm2.0891,16.18846c.366.49518.32512.87032-.13,1.58309-.72193-.00084-.72193-.00084-1.23545-.89117.06836-.29761.21758-.62439.28677-.92034C150.68369,52.43743,151.05966,52.47744,151.28724,52.84341Zm.35347-13.76256c.01.26676.02.53436.05918.87949q-.47517.17755-.71276.26676a.78138.78138,0,0,1-.36513-1.21628,9.23712,9.23712,0,0,1,.95952-.81113C151.62153,38.54565,151.63154,38.81325,151.64071,39.08085Zm-.96453-8.84659c-.02917-.0792-.10837-.04919-.13838-.12838C150.617,30.07587,150.647,30.15506,150.67618,30.23426Zm.43266,5.25443a.47389.47389,0,0,1,.32679-.57438.537.537,0,0,1,.54437.24843.54488.54488,0,0,1-.29761.65274A.47266.47266,0,0,1,151.10884,35.48869Zm.14839,1.11791c.02918.0792.10837.05.13839.12838C151.31559,36.76416,151.28641,36.6858,151.25723,36.6066Zm.887,5.26444c-.35679-.22758-.71192-.45517-.70192-.91033.06919-.29761.16839-.51436.43516-.52436.23759-.08837.37681.04.51436.16839.02917.07836.16839.20758.19757.28677C152.471,41.29666,152.51019,41.64346,152.14422,41.871Zm-.0917-12.78387c.326.14839.38515.30678.20675.55437-.23676.0892-.42516.06919-.65191-.29594C151.76575,29.28558,151.89413,29.14636,152.05252,29.08717Zm1.42053,8.13383a.64492.64492,0,0,1-.426.07.378.378,0,0,1-.336-.41682c.02-.1884.14839-.32595.47434-.17756.05919.15839.11921.31761.20758.55437Zm-.21341-25.64528a.29372.29372,0,0,0-.18841-.02c-.02917-.07837.02-.18841-.03918-.3468a.44293.44293,0,0,0,.29678.06919C153.27964,11.38815,153.33883,11.54571,153.25964,11.57572Zm-.13089,56.555c.14839-.32679.57438-.396.69276-.0792a.519.519,0,0,1,.09837.50519c.01.26759-.04.376-.3568.49518C153.03955,68.61588,152.97953,68.45749,153.12875,68.13071ZM153.393,37.251a.65074.65074,0,0,1,.25759-.27761c.2776-.4635.74194-.18673.86032.13005a1.032,1.032,0,0,1-.04919.83114c-.26676.00917-.45516-.01084-.72193-.00083-.11838-.31679-.1784-.47518-.26676-.71276Zm.86282-2.76019c-.18757-.02-.11838-.316.03918-.37513a.362.362,0,0,1,.54436.24759C154.66182,34.61,154.45341,34.7776,154.25584,34.49082Zm.30094,9.00415c-.07836.02918-.21675-.0992-.21675-.0992-.1092-.05-.05919-.15756.02-.18757.07836-.02918.18757.01917.53353-.02C154.686,43.35659,154.63681,43.465,154.55678,43.495Zm-.02251-29.23743c-.07919.02918-.10921-.05-.13838-.12921C154.47508,14.09915,154.50509,14.17835,154.53427,14.25754Zm.25259,7.66866c-.08836-.23842-.11837-.31678-.17756-.476-.02918-.07836.12921-.13755.1784-.24759C155.14366,21.43185,155.12365,21.61942,154.78686,21.9262Zm.32762-1.29631a.29149.29149,0,0,1-.12838.13838l-.1092-.04918c-.03-.0792.05-.10921.0992-.21841A.29035.29035,0,0,0,155.11448,20.62989Zm.06-.56437c-.10921-.04919-.1684-.20758-.19841-.28678.14839-.32678.14839-.32678.74277-.18757C155.49129,19.94714,155.49129,19.94714,155.17451,20.06552Zm2.16663.00083a.6503.6503,0,0,1-.95035-.366.58676.58676,0,0,1,.39681-.87032c.47518-.1784.69276-.0792.92034.28761A.64942.64942,0,0,1,157.34114,20.06635Zm-.40182,10.26044a.25213.25213,0,0,1-.40515-.11838.2604.2604,0,0,1,.19758-.436c.15839-.05919.29677.07.406.11921C157.03853,30.10921,157.01852,30.29761,156.93932,30.32679Zm.21425,6.59993-.21758-.0992a.44693.44693,0,0,1,.06919-.29678,1.06179,1.06179,0,0,0,.29678.06919C157.25194,36.70914,157.20275,36.81751,157.15357,36.92672Zm.20507,4.16487c-.07919.03-.29677-.0692-.29677-.0692-.02918-.07836-.00917-.26676.06919-.29594.0792-.03.1884.01918.376.04C157.45785,40.874,157.43784,41.06241,157.35864,41.09159Zm.1834,24.845c-.26593.01-.32595-.14838-.38514-.30677.02-.18841-.00917-.2676.14839-.32679.04919-.10754.15839-.05919.396-.14839A2.3177,2.3177,0,0,1,157.542,65.93656Zm.71944-28.70223a.2659.2659,0,0,0,.1884.02c.27677.25593.06836.42516-.06.56271-.12838.14-.31679.11838-.48518-.08837C158.03306,37.58946,158.1331,37.37272,158.26148,37.23433Zm1.744-23.31024a.2624.2624,0,0,0,.12922-.13755c.02917.07836.13838.12838.16756.20674a.26562.26562,0,0,0-.12838.13922C160.14467,14.05247,160.03546,14.00412,160.00545,13.92409Zm.371,9.4293a.25815.25815,0,0,0-.18757-.02c-.03-.07836.04919-.10837.02-.1884.07836-.02918.10837.05085.18757.02168C160.34724,23.2742,160.34724,23.2742,160.37642,23.35339Zm0,17.60231c-.07919.03-.04918.10838-.12921.13755C160.218,41.01489,160.29723,40.98571,160.37642,40.9557ZM162.388,2.20061a.2927.2927,0,0,1,.01918-.18757.29075.29075,0,0,1,.18757.02.29071.29071,0,0,1-.02.18757A.289.289,0,0,1,162.388,2.20061Zm.38765-4.74842c-.10921-.05085-.18757-.02084-.21758-.0992a.29368.29368,0,0,1,.02-.1884c.0792-.02918.10838.05.26677-.00917A.45079.45079,0,0,0,162.77564-2.54781Zm1.13458,39.923a.26264.26264,0,0,1-.01917.1884C163.861,37.48443,163.83186,37.40523,163.91022,37.37522Zm1.5239-16.90789a.39879.39879,0,0,1-.24676.54353.46546.46546,0,0,1-.48518-.08836c-.30678-.33679-.12838-.58355.12921-.86115C165.17735,20.02133,165.42411,20.20056,165.43412,20.46733Zm-.44183-6.9659a.2635.2635,0,0,1,.02-.18757C165.04231,13.39306,165.07232,13.47226,164.99229,13.50143Zm.19507,24.38981a.30867.30867,0,0,1-.01-.2676c.26677-.00917.37514.03919.36514.49435C165.32574,38.01962,165.21654,37.9696,165.18736,37.89124Zm2.691,17.31554c-.03-.07836.02-.18673.06919-.29677.03.08.1884.02084.21758.1.03.07837-.02.18757.02.53353C167.93754,55.36517,167.90836,55.28681,167.87835,55.20678Zm.451-28.69222a.182.182,0,0,1-.21758-.09921.29512.29512,0,0,1,.12921-.13838s.10838.04918.21758.0992A.29891.29891,0,0,0,168.32935,26.51456Zm.60939,24.77578c.2676-.01.32679.14839.25759.44516C168.71116,51.64631,168.71116,51.64631,168.93874,51.29034Zm.2701-4.3441a.29971.29971,0,0,1-.1884-.02l-.05919-.15839c.07919-.02917.1884.02084.2676-.00917A.25815.25815,0,0,0,169.20884,46.94624Zm.71193-34.74862a.30884.30884,0,0,1-.20758.16923.44017.44017,0,0,1,.03918-.376A.86388.86388,0,0,0,169.92077,12.19762Zm2.23165,7.64948a.71252.71252,0,0,1,.436-.52352c.26676-.01.75194.07919.87032.39681.14838.396-.10921.67275-.396.86948C172.39,20.4815,172.22161,20.27226,172.15242,19.8471Zm8.89744,14.36195a.29891.29891,0,0,1-.12921.13839c-.10921-.04919-.13839-.12838-.24759-.1784a1.20488,1.20488,0,0,0,.1784-.24676A.64365.64365,0,0,1,181.04986,34.20905Z"/>
    <g>
      <path class="cls-1" d="M29.69541,108.15335c-1.24629-.13088-1.80733-.91867-2.01074-2.17246-.40015-2.84355-2.11578-10.98071-2.37754-12.21283a5.75645,5.75645,0,0,0-.25426-1.56725c-1.5164.56688-2.68349.47184-3.53547-.7386.24175-1.48638,1.4597-2.14246,2.49508-2.92941-.1809-1.19544-.24592-2.4359-.42765-3.63051C23.243,82.56894,19.94348,65.5806,19.8051,65.0329c.19007-1.268,2.62513-2.57928,3.55131-2.06159.24009.11087,1.22962,5.061,1.5564,6.469.06586.17423,1.273-7.79453,2.50676-11.2483a1.40217,1.40217,0,0,1,.6419-.77279,4.37075,4.37075,0,0,1,4.00314-.50018c.56021.25509,5.5062,8.84575,4.881,31.69375a2.90978,2.90978,0,0,1-2.91774,2.68849c-1.298.0867-4.56335-.28678-5.23443-.30178.10921.82447,2.84271,14.69958,3.097,16.26682A2.29586,2.29586,0,0,1,29.69541,108.15335Zm.27343-45.46215c-3.88476,11.29749-2.03241,23.17562-1.88736,24.45192,1.79316-.00667,3.237.11754,4.77509.14005C33.67437,85.38164,31.95624,66.93527,29.96884,62.6912Z"/>
      <path class="cls-1" d="M54.5729,64.45519c.52519-.19674,2.84188,2.26166,2.791,2.48008-2.10744,1.12124-6.6216,3.2762-6.6141,3.47377.40682,1.97656,1.78066,8.84451,2.29,9.85071a15.1494,15.1494,0,0,0,.19841-1.60392c.29177-.10921,3.0903.44016,2.95859,1.68562A100.93662,100.93662,0,0,0,54.44118,92.1733c-.93451.88033-3.66635-2.15245-3.78306-2.641-.82864-4.34576-1.69312-8.6115-2.52259-12.95643-.23926-1.175-.61023-3.23078-.85032-4.40371-1.21711.65441-2.41338,1.368-2.41338,1.368-.10921.24092-.60939,7.07969-2.661,11.904a3.6178,3.6178,0,0,1-1.809,2.27417A3.16685,3.16685,0,0,1,38.28107,86.317a1.83014,1.83014,0,0,1-.10754-2.42089c1.25463-1.799,1.9057-5.56788,2.19831-7.80621a22.15843,22.15843,0,0,1-3.04863,2.33837c-.13838-.015-1.17876-2.61722-.50852-3.13491.57688-.41515,3.50046-2.37587,3.63217-2.55677A78.04313,78.04313,0,0,0,41.6248,53.14019c.095-.6344,5.72877.9145,6.37568,4.59669.53853,2.85855,1.4547,6.37235,2.0074,9.09251C51.59764,66.1,53.25241,65.01539,54.5729,64.45519Zm-8.29806,3.23952c-.25426-1.56808-.62523-3.092-.93784-4.63754-.08087-.03751-.13922-.015-.21842-.05085-.0967,2.23082-.15589,4.38078-.23008,6.67079C46.36154,68.99186,46.47825,68.94851,46.27484,67.69471Z"/>
      <path class="cls-1" d="M69.40669,67.4813c1.26046,2.12245,2.24333,3.683,1.25046,5.65041-.02167-.05752-5.442,6.95965-12.05444,7.24058-1.29714.0867-2.60179-2.15162-2.81937-3.79973-1.4672-9.428-1.914-18.43887-.8253-23.16978.8253-3.302,2.3-6.11475,5.312-7.84121,2.68349-1.00454,5.6154,9.67022,6.0514,11.901.46517,2.48675-2.86022,3.73138-3.07864,3.67969-.4585-1.75648-2.03741-7.75035-2.60429-9.80027-2.32752,2.66764-2.38254,10.869-1.92571,14.22356.22509,1.844.76028,10.55764,1.48889,10.55014C61.51378,75.89064,66.56064,72.66988,69.40669,67.4813Z"/>
      <path class="cls-1" d="M82.63823,68.18072c.36513.79613,1.58058,2.801,1.34049,3.22369-.14589.32095-7.301,5.194-8.35808,5.39073-.977.23259-1.79316-1.05914-1.58808-2.46549-.0075-.19674,1.89653-1.508,1.96989-1.66894.5327-1.0629-4.96683-23.74708-5.17774-23.60119-.83114.4435-3.73387,2.46174-3.77722,2.345-.3643-.79446-1.41219-3.59382-.50852-4.199,1.11541-.75027,9.25507-5.65958,9.99784-5.27277a3.58471,3.58471,0,0,1,1.60226,2.85772c-.52436.19674-3.47878,1.90237-3.47878,1.90237.27677,1.62559,4.91681,21.83637,5.2511,22.90926C81.18769,68.92433,82.29643,67.97732,82.63823,68.18072Zm-16.356-30.19027c.44516-.76445.97119-3.623,2.49508-5.05853,1.02788.61272,4.23406,3.66885,3.8114,3.96146-.76611,1.15042-1.00787,2.63847-2.175,3.608C69.04322,40.74813,67.08333,38.88744,66.28221,37.99045Z"/>
      <path class="cls-1" d="M80.71085,61.78754c-.2851-.75861-.77028-4.36828.27177-4.95849.50352-.25426,1.57558-.58939,2.195-.88783-1.92654-9.5877-3.58548-15.61825-4.19821-27.02828a9.91214,9.91214,0,0,1,.847-2.711,2.26127,2.26127,0,0,1,2.04158-.76445,4.26017,4.26017,0,0,1,2.41256,1.824c1.75481,2.736,9.43847,15.62158,9.35094,16.98458-.65107,2.70433-2.72851,3.01611-3.82891,1.49972C88.412,43.80509,83.817,34.01982,83.351,33.13032c-.16923,2.92275,3.60549,18.33675,4.09984,21.61046.82364-.10921,4.80427-1.19961,5.29278-1.31632,1.29048-.28344,2.36837,2.23916,2.94359,3.42043.12421.15338-3.12032.902-4.27241,1.20044-1.01371.31345-1.81567.48017-2.771.77195-.4535,2.165,5.21525,21.39245,5.71794,22.20275.60439.90367-4.95849.79113-5.07437.30261-.63273-2.22415-4.69923-18.59392-5.23026-21.25407-.15339.12338-.91117.40682-.98369.56854C82.61322,61.00808,80.91426,61.97594,80.71085,61.78754Z"/>
      <path class="cls-1" d="M107.60575,58.834c.3643.79613,1.58058,2.80187,1.33966,3.22452-.14589.321-7.301,5.19275-8.35808,5.38948-.977.23342-1.79316-1.05872-1.58808-2.46507-.00667-.19674,1.89653-1.508,1.96906-1.66811.53353-1.06373-4.96516-23.74791-5.17691-23.602-.83114.44433-3.733,2.46257-3.77722,2.34586-.3643-.79529-1.413-3.59466-.50852-4.19988,1.11624-.75028,9.25507-5.65958,9.99784-5.27277a3.58618,3.58618,0,0,1,1.60226,2.85855c-.52519.1959-3.478,1.90153-3.478,1.90153.27594,1.6256,4.916,21.83721,5.25027,22.90927C106.15438,59.57756,107.26312,58.63054,107.60575,58.834ZM91.2489,28.64367c.44433-.76445.97119-3.623,2.49591-5.05853,1.02788.61356,4.23406,3.66969,3.81057,3.96146-.76611,1.15126-1.007,2.63847-2.175,3.608C94.00991,31.40135,92.05,29.5415,91.2489,28.64367Z"/>
      <path class="cls-1" d="M122.08316,47.76154c1.26046,2.12245,2.24333,3.683,1.25046,5.65041-.02167-.05752-5.442,6.96007-12.05485,7.24017-1.29715.0867-2.60179-2.15163-2.81937-3.79973-1.46721-9.4268-1.914-18.43846-.82531-23.16853.82531-3.30288,2.29918-6.11558,5.312-7.84205,2.6839-1.00454,5.61581,9.67022,6.05181,11.901.46517,2.48675-2.86022,3.73138-3.07863,3.68053-.45851-1.75732-2.03784-7.75119-2.60471-9.80111-2.32753,2.66765-2.38255,10.86983-1.92571,14.22357.22508,1.844.76028,10.55722,1.48888,10.54971C114.18984,56.17047,119.23711,52.951,122.08316,47.76154Z"/>
      <path class="cls-1" d="M76.88277,97.221c.52436-.19674,2.84105,2.26166,2.791,2.48007-2.10827,1.12125-6.62244,3.277-6.6141,3.47462.406,1.97572,1.78066,8.84325,2.29,9.84946a14.92414,14.92414,0,0,0,.19757-1.60393c.29178-.10837,3.09114.44016,2.95943,1.68646a101.03158,101.03158,0,0,0-1.75648,11.831c-.93368.882-3.66635-2.15246-3.78223-2.641-.82864-4.34577-1.694-8.61067-2.52259-12.95644-.24009-1.17377-.61106-3.23036-.85032-4.40329-1.21711.65441-2.41422,1.36884-2.41422,1.36884-.10921.24009-.60856,7.07844-2.661,11.90355a3.61233,3.61233,0,0,1-1.80816,2.27333,3.16853,3.16853,0,0,1-2.12162-1.40135,1.831,1.831,0,0,1-.10754-2.42005c1.25463-1.79983,1.90654-5.56872,2.19914-7.80621a22.13872,22.13872,0,0,1-3.04862,2.33753c-.13838-.01417-1.1796-2.6168-.50852-3.13449.57605-.41515,3.50046-2.375,3.63134-2.55677a77.95085,77.95085,0,0,0,1.17793-19.59555c.095-.6344,5.72961.9145,6.37652,4.59586.53769,2.85855,1.4547,6.37318,2.0074,9.09251C73.90668,98.8666,75.56229,97.7812,76.88277,97.221Zm-8.29888,3.23952c-.25426-1.56808-.62523-3.092-.93785-4.63671-.08-.03751-.13838-.01583-.21841-.05168-.0967,2.23082-.15506,4.38161-.22925,6.67079C68.67059,101.75767,68.7873,101.71432,68.58389,100.46052Z"/>
      <path class="cls-1" d="M84.60145,113.22022c-1.393.72026-3.76139.07753-4.41746-1.13959C75.93826,104.2911,73.65492,93.042,75.74486,85.475c.38014-1.47221,4.04815-3.04446,4.966-2.72267a6.48258,6.48258,0,0,1,3.90644,2.79353c-.36347-1.859-.95285-4.49833-.04835-5.63458a18.22334,18.22334,0,0,1,2.25249.15339c.7953.1684,1.64061.64941,1.49389,1.50305-.01418.13839-.1684.2626-.10254.43767.44433,1.89486,4.31992,18.46846,4.931,21.16612.50185,1.874,1.12791,4.4333,1.61476,6.4457.69359-.45933,1.63394-.61189,2.32669-1.07039-.451-1.02788-1.20128-2.14412-1.6306-3.11365a1.75466,1.75466,0,0,1,.11754-2.17246,2.90126,2.90126,0,0,1,2.82021,1.13792,9.19982,9.19982,0,0,0,4.58419,3.00694c1.01287.21924,1.53806.5552,1.35466,1.488a1.62821,1.62821,0,0,1-.62023.83031c-.30594.24843-7.11678,3.197-8.08631,3.62634A40.79952,40.79952,0,0,1,97.031,127.057a5.42293,5.42293,0,0,1-3.83724,5.02768c-2.20248.69109-10.949-2.95109-14.70041-8.52981-.8153-1.2913-.68359-2.00573.34512-2.9886a30.42511,30.42511,0,0,1,3.00444-2.98776,68.97353,68.97353,0,0,1,8.62818-6.09058c-.50185-2.40588-.49352-3.80473-.93785-5.16857A15.82977,15.82977,0,0,1,84.60145,113.22022Zm-.92951-5.50453c2.49425-2.92941,2.94859-5.62707,3.55464-10.04453-.12338-.15339-.16673-.26926-.24676-.30594-1.39217-.34346-1.83651-1.17544-1.57307-2.60346a5.85616,5.85616,0,0,0-.436-2.76352,11.358,11.358,0,0,0-1.16543-2.22415,7.41957,7.41957,0,0,0-2.9069-2.96943C77.95817,89.96833,81.82876,105.27979,83.67194,107.71569Zm8.27721,7.54278c-1.92487.7211-8.83158,5.36781-8.99331,6.8917-.2851,1.37051,8.54815,6.30982,9.54018,5.93885C93.75148,125.22547,93.37468,120.312,91.94915,115.25847Z"/>
      <path class="cls-1" d="M98.354,95.768c.14339,3.93645,4.11568,4.77676,5.9747,4.41413a3.30449,3.30449,0,0,1,3.317,1.21878,2.057,2.057,0,0,1-1.453,2.871c-2.2525.37764-4.46915.67609-6.83-.30177-3.142-1.28464-5.36365-4.91014-5.79964-7.67283-.43516-2.76268-.95452-13.74339.76278-21.76926.67192-1.58142,1.54724-1.9082,3.202-1.398,1.81484.58354,2.63764,2.07242,3.34373,3.60341a29.68142,29.68142,0,0,1,1.83485,4.36827c4.71006,12.40373,2.27417,14.24691,2.15746,14.823C102.71228,96.92922,100.60567,96.45405,98.354,95.768Zm.17506-14.09936c-.08753-.23341-.29177-.42348-.67024-1.08039-.13922,2.11411-.21675,8.66235-.19507,10.31629.12338,1.74981,2.84938,1.92655,3.08947,1.50306C101.90615,91.57809,99.40273,84.53383,98.52907,81.6686Z"/>
      <path class="cls-1" d="M114.35657,67.628c-.13755-.54687,4.42538.80446,4.48373,1.31548.15923,2.73351,2.34753,12.48918,3.0903,15.00428,1.18627,3.87976,2.35,7.70033,3.59466,11.55758.60439,1.9699,1.36134,3.81474,2.0816,5.73878a2.77264,2.77264,0,0,1,.28344,2.355c-.63524,1.50222-.96369,1.69062-2.47925,1.1946a2.94719,2.94719,0,0,1-2.36087-2.57511,1.94069,1.94069,0,0,0-1.4572-1.58308,3.74162,3.74162,0,0,1-2.20748-2.1658c-1.68312-2.89607-3.307-5.813-4.90972-8.67069-.50269-.8103-2.27834-4.66755-2.66515-4.45581-.25509.02834,1.48221,8.223,3.43085,17.86991a.98619.98619,0,0,1-1.0433,1.12291c-1.46554-.1834-3.7914-.71026-4.14653-2.37254-.67692-2.87272-3.65385-23.973-3.75388-27.79314,0-1.06456,2.57428-1.29548,3.48545-.6394a.47033.47033,0,0,1,.22508.24759c2.666,4.45622,7.20307,12.66758,7.62656,12.37664C117.8466,86.00854,114.655,69.312,114.35657,67.628Z"/>
      <path class="cls-1" d="M140.01893,82.16545c1.25963,2.12162,2.24332,3.68219,1.25046,5.64958-.02168-.05752-5.442,6.96007-12.05444,7.241-1.298.0867-2.60179-2.15246-2.81937-3.79973-1.46721-9.42764-1.91487-18.4397-.8253-23.16978.8253-3.302,2.29918-6.11558,5.31195-7.84122,2.68349-1.00537,5.6154,9.67023,6.0514,11.901.46517,2.48592-2.86022,3.731-3.07864,3.67969-.4585-1.75732-2.03741-7.75119-2.60429-9.80028-2.32752,2.66765-2.38338,10.86942-1.92571,14.22316.22509,1.84484.75945,10.55805,1.488,10.54971C132.126,90.57355,137.17288,87.35486,140.01893,82.16545Z"/>
      <path class="cls-1" d="M162.98238,83.27836c-.93951-.91116-1.799-1.78565-2.7977-2.676-.83114-1.15293.70276-5.585,1.56308-5.24151,1.31132,1.90445,3.75221,4.51541,9.1467,5.42158a.749.749,0,0,1,.40015.18256c.99119.69276,1.03454,1.874-.05169,2.34753-1.26213.53853-2.29751,1.32549-3.50045,1.84235-1.18127.57521-2.37755,1.28964-3.61717,1.88653-1.18127.57521-2.40588,1.03371-3.55131,1.52889.00584,2.32586.04835,4.57085.09087,6.81668.01417,1.458-.06752,3.01777-.05335,4.47664a7.35554,7.35554,0,0,1-1.80317,4.59836,2.45474,2.45474,0,0,1-2.21748.83031c-1.74147-.21258-3.52046-.34513-5.28528-.61606a5.66256,5.66256,0,0,1-1.54473-.75111,24.83075,24.83075,0,0,1-6.87837-5.40616,2.58989,2.58989,0,0,1-.30511-2.94525,9.51759,9.51759,0,0,1,4.04065-4.30658,51.66891,51.66891,0,0,1,8.34307-4.18738,9.27307,9.27307,0,0,0,1.12292-.55353c-.00667-.19674.06669-.3568.00083-.531-.56771-2.04992-4.57085-13.9864-5.6179-18.91571-.02167.47434.47017,6.409.36013,7.18181-.32178,3.04737-.58605,6.07265-.90866,9.12044a25.07686,25.07686,0,0,1-.73111,3.73137c-.351,1.19544-.912,1.47137-2.18,1.28214a3.62346,3.62346,0,0,1-2.54427-1.64144,17.25,17.25,0,0,1-2.85355-7.44524c-.32678-1.93905-.792-3.89352-1.06122-5.85507-.24676-1.37051-2.17247-12.55546-2.28084-13.91179a3.824,3.824,0,0,0-.24759-.83781c-.34179-1.26963.35846-2.06326,1.69979-2.03325a3.63741,3.63741,0,0,1,2.09911.8103c.25259,4.76009,2.94942,19.24834,4.17153,24.11179.72944-1.07122.496-2.04825.64274-2.90023.46851-3.37.73444-22.02436.32762-24.53361a4.28206,4.28206,0,0,1,.1684-1.32632,1.84089,1.84089,0,0,1,1.85234-1.62477,1.935,1.935,0,0,1,2.245,1.55391c3.31372,18.44678,7.72534,29.16615,8.00878,30.98932a3.7404,3.7404,0,0,0,.37847,1.18877C160.79491,84.36376,161.80111,83.85441,162.98238,83.27836Zm-6.234,15.504c.06669-2.48591.09754-4.89263.12755-7.29852a5.22681,5.22681,0,0,0-.3493-.932,2.80086,2.80086,0,0,0-.51019.05669c-2.13,1.06373-4.36077,2.03242-6.44654,3.212-1.25462.7361-2.706,1.478-2.75768,3.29288,3.39542,3.38541,6.08474,4.70589,8.95747,4.56251C156.62337,100.22543,156.75425,100.04287,156.74842,98.7824Z"/>
    </g>
  </g>
</svg>
